# xmcd
#
# Track frame offsets:
#  150
#  11766
#  23775
#  38430
#  52234
#  66727
#  81002
#  93809
#  109313
#  121422
#  135488
#  149043
#  162161
#  175670
#  187544
#  200361
#  215308
#  229249
#  240597
#  255679
#  271846
#  285821
#  298637
#  312445
#  326106
#
# Disc length: 4517 seconds
#
# Revision: 0
# Processed by: cddbd v1.5.2PL0 Copyright (c) Steve Scherf et al.
# Submitted via: AltoMP3_Maker 3.0
#
DISCID=6511a319
DTITLE=Various Artist - Head Rag Hop - Piano Blues 1925-1929 CD A
DYEAR=1900
DGENRE=
TTITLE0=Hersal Thomas - Suitcase Blues
TTITLE1=Hociel Thomas - Fish Tail Dance
TTITLE2=Meade Lux Lewis - Honky Tonk Train Blues
TTITLE3='Boodle It' Wiggins - Evil Womabn Blues
TTITLE4=Hattie Hudson - Doggone My Good Luck Soul
TTITLE5=Cow Cow Davenport - Cow Cow Blues
TTITLE6=Herve Duerson - Avenue Strut
TTITLE7=Bessie Tucker - Penitentiary
TTITLE8=Will Ezell - Mixed Up Rag
TTITLE9=Bert Mays - Michigan River Blues
TTITLE10=Bobbie Cadillac - Carbolic Acid Blues
TTITLE11=Pine Top Smith - Pine Top's Blues
TTITLE12=Will Ezell - Heifer Dust
TTITLE13=Moanin' Bernice Edwards - Moaning Blues
TTITLE14=Barrelhouse Welch - Dying Pickpocket Blues
TTITLE15=Pine Top Smith - Jump Steady Blues
TTITLE16=Cow Cow Davenport - Slum Gullion Stomp
TTITLE17=St. Louis Bessie - Sweet Black Woman
TTITLE18=Montana Taylor - Detroit Rocks
TTITLE19=Henry Brown - Stomp 'Em down to the Bricks
TTITLE20=Raymond Barrow - Walking Blues
TTITLE21=Lil Johnson - House Rent Scuffle
TTITLE22=Will Ezell - Pitchin' Boogie
TTITLE23=Mary Johnson - Black Men Blues
TTITLE24=Cow Cow Davenport - Mooch Piddle
EXTD=
EXTT0=
EXTT1=
EXTT2=
EXTT3=
EXTT4=
EXTT5=
EXTT6=
EXTT7=
EXTT8=
EXTT9=
EXTT10=
EXTT11=
EXTT12=
EXTT13=
EXTT14=
EXTT15=
EXTT16=
EXTT17=
EXTT18=
EXTT19=
EXTT20=
EXTT21=
EXTT22=
EXTT23=
EXTT24=
PLAYORDER=
